<svg width="5453" height="3465" viewBox="0 0 5453 3465" fill="none" xmlns="http://www.w3.org/2000/svg">
<path fill-rule="evenodd" clip-rule="evenodd" d="M2327.31 274.105C2324.42 256.759 2307.05 222 2260.65 222C2214.04 222 2194.82 249.148 2191.02 262.451L2190.72 263.493L2189.71 263.113C2182.09 260.257 2162.7 257.949 2146.59 271.759C2131.07 285.068 2128.54 301.159 2129.18 308.235H2371.71C2373.37 303.251 2373.85 291.5 2362.88 280.53C2357.21 274.86 2350.36 272.723 2344.05 272.366C2337.72 272.008 2331.99 273.445 2328.69 274.86L2327.52 275.362L2327.31 274.105ZM2087.12 308.235H2127.18C2126.54 300.466 2129.37 283.887 2145.29 270.241C2161.46 256.381 2180.76 258.052 2189.41 260.888C2194.09 246.472 2214.24 220 2260.65 220C2307.3 220 2325.48 254.261 2329.06 272.559C2332.69 271.21 2338.17 270.03 2344.16 270.369C2350.84 270.747 2358.2 273.022 2364.3 279.116C2376.37 291.184 2375.44 304.361 2373.34 309.606L2373.09 310.235H2372.41H2128.29H2087.12C2086.57 310.235 2086.12 309.787 2086.12 309.235C2086.12 308.683 2086.57 308.235 2087.12 308.235ZM2060.65 308.235C2061.2 308.235 2061.65 308.683 2061.65 309.235C2061.65 309.788 2061.2 310.235 2060.65 310.235H2043C2042.45 310.235 2042 309.788 2042 309.235C2042 308.683 2042.45 308.235 2043 308.235H2060.65Z" fill="#0E3249"/>
<path d="M2327.31 274.105L2323.36 274.763L2323.36 274.763L2327.31 274.105ZM2191.02 262.451L2194.87 263.55L2194.87 263.55L2191.02 262.451ZM2190.72 263.493L2194.57 264.592L2193.38 268.761L2189.32 267.239L2190.72 263.493ZM2189.71 263.113L2188.3 266.858L2188.3 266.858L2189.71 263.113ZM2146.59 271.759L2143.99 268.722L2143.99 268.722L2146.59 271.759ZM2129.18 308.235V312.235H2125.53L2125.2 308.598L2129.18 308.235ZM2371.71 308.235L2375.51 309.499L2374.6 312.235H2371.71V308.235ZM2362.88 280.53L2365.71 277.702L2365.71 277.702L2362.88 280.53ZM2344.05 272.366L2344.27 268.372L2344.27 268.372L2344.05 272.366ZM2328.69 274.86L2327.11 271.183L2327.11 271.183L2328.69 274.86ZM2327.52 275.362L2329.09 279.038L2324.41 281.045L2323.57 276.019L2327.52 275.362ZM2127.18 308.235L2131.16 307.907L2131.52 312.235H2127.18V308.235ZM2145.29 270.241L2142.69 267.204L2142.69 267.204L2145.29 270.241ZM2189.41 260.888L2193.21 262.124L2191.97 265.94L2188.16 264.689L2189.41 260.888ZM2329.06 272.559L2330.45 276.309L2326.04 277.949L2325.13 273.327L2329.06 272.559ZM2344.16 270.369L2343.93 274.363L2343.93 274.363L2344.16 270.369ZM2364.3 279.116L2361.47 281.945L2361.47 281.945L2364.3 279.116ZM2373.34 309.606L2369.63 308.121L2369.63 308.121L2373.34 309.606ZM2373.09 310.235L2376.8 311.721L2375.8 314.235H2373.09V310.235ZM2260.65 218C2309.66 218 2328.16 254.896 2331.25 273.448L2323.36 274.763C2320.67 258.623 2304.45 226 2260.65 226V218ZM2187.17 261.352C2191.46 246.359 2212.23 218 2260.65 218V226C2215.86 226 2198.18 251.938 2194.87 263.55L2187.17 261.352ZM2186.88 262.394L2187.17 261.352L2194.87 263.55L2194.57 264.592L2186.88 262.394ZM2191.11 259.367L2192.13 259.748L2189.32 267.239L2188.3 266.858L2191.11 259.367ZM2143.99 268.722C2161.53 253.684 2182.59 256.17 2191.11 259.367L2188.3 266.858C2181.6 264.344 2163.87 262.213 2149.19 274.796L2143.99 268.722ZM2125.2 308.598C2124.45 300.374 2127.38 282.962 2143.99 268.722L2149.19 274.796C2134.76 287.173 2132.63 301.944 2133.17 307.872L2125.2 308.598ZM2371.71 312.235H2129.18V304.235H2371.71V312.235ZM2365.71 277.702C2377.85 289.844 2377.6 303.219 2375.51 309.499L2367.92 306.971C2369.15 303.282 2369.85 293.156 2360.05 283.359L2365.71 277.702ZM2344.27 268.372C2351.33 268.771 2359.19 271.185 2365.71 277.702L2360.05 283.359C2355.23 278.535 2349.39 276.674 2343.82 276.359L2344.27 268.372ZM2327.11 271.183C2330.93 269.547 2337.27 267.976 2344.27 268.372L2343.82 276.359C2338.17 276.039 2333.05 277.342 2330.26 278.537L2327.11 271.183ZM2325.94 271.685L2327.11 271.183L2330.26 278.537L2329.09 279.038L2325.94 271.685ZM2331.25 273.448L2331.46 274.704L2323.57 276.019L2323.36 274.763L2331.25 273.448ZM2127.18 312.235H2087.12V304.235H2127.18V312.235ZM2147.89 273.278C2133.05 285.999 2130.62 301.272 2131.16 307.907L2123.19 308.563C2122.46 299.659 2125.69 281.774 2142.69 267.204L2147.89 273.278ZM2188.16 264.689C2180.38 262.135 2162.68 260.607 2147.89 273.278L2142.69 267.204C2160.24 252.154 2181.15 253.968 2190.65 257.088L2188.16 264.689ZM2260.65 224C2216.02 224 2197.37 249.313 2193.21 262.124L2185.6 259.653C2190.81 243.631 2212.47 216 2260.65 216V224ZM2325.13 273.327C2321.79 256.204 2304.75 224 2260.65 224V216C2309.85 216 2329.18 252.317 2332.99 271.792L2325.13 273.327ZM2343.93 274.363C2338.57 274.059 2333.64 275.127 2330.45 276.309L2327.67 268.81C2331.75 267.293 2337.78 266.002 2344.39 266.375L2343.93 274.363ZM2361.47 281.945C2356.22 276.697 2349.87 274.699 2343.93 274.363L2344.39 266.375C2351.81 266.796 2360.19 269.347 2367.13 276.288L2361.47 281.945ZM2369.63 308.121C2371.18 304.249 2372.32 292.798 2361.47 281.945L2367.13 276.288C2380.41 289.57 2379.7 304.473 2377.06 311.092L2369.63 308.121ZM2369.38 308.749L2369.63 308.121L2377.06 311.092L2376.8 311.721L2369.38 308.749ZM2372.41 306.235H2373.09V314.235H2372.41V306.235ZM2128.29 306.235H2372.41V314.235H2128.29V306.235ZM2087.12 306.235H2128.29V314.235H2087.12V306.235ZM2090.12 309.235C2090.12 307.578 2088.78 306.235 2087.12 306.235V314.235C2084.36 314.235 2082.12 311.996 2082.12 309.235H2090.12ZM2087.12 312.235C2088.78 312.235 2090.12 310.892 2090.12 309.235H2082.12C2082.12 306.474 2084.36 304.235 2087.12 304.235V312.235ZM2057.65 309.235C2057.65 310.892 2058.99 312.235 2060.65 312.235V304.235C2063.41 304.235 2065.65 306.474 2065.65 309.235H2057.65ZM2060.65 306.235C2058.99 306.235 2057.65 307.578 2057.65 309.235H2065.65C2065.65 311.997 2063.41 314.235 2060.65 314.235V306.235ZM2043 306.235H2060.65V314.235H2043V306.235ZM2046 309.235C2046 307.578 2044.66 306.235 2043 306.235V314.235C2040.24 314.235 2038 311.997 2038 309.235H2046ZM2043 312.235C2044.66 312.235 2046 310.892 2046 309.235H2038C2038 306.474 2040.24 304.235 2043 304.235V312.235ZM2060.65 312.235H2043V304.235H2060.65V312.235Z" fill="#0E3249"/>
</svg>
