<svg width="5453" height="3465" viewBox="0 0 5453 3465" fill="none" xmlns="http://www.w3.org/2000/svg">
<path fill-rule="evenodd" clip-rule="evenodd" d="M4778.31 831.105C4775.42 813.759 4758.05 779 4711.65 779C4665.04 779 4645.82 806.148 4642.02 819.451L4641.72 820.493L4640.71 820.113C4633.09 817.257 4613.7 814.949 4597.59 828.759C4582.07 842.068 4579.54 858.159 4580.18 865.235H4822.71C4824.37 860.251 4824.85 848.5 4813.88 837.53C4808.21 831.86 4801.36 829.723 4795.05 829.366C4788.72 829.008 4782.99 830.445 4779.69 831.86L4778.52 832.362L4778.31 831.105ZM4538.12 865.235H4578.18C4577.54 857.466 4580.37 840.887 4596.29 827.241C4612.46 813.381 4631.76 815.052 4640.41 817.888C4645.09 803.472 4665.24 777 4711.65 777C4758.3 777 4776.48 811.261 4780.06 829.559C4783.69 828.21 4789.17 827.03 4795.16 827.369C4801.84 827.747 4809.2 830.022 4815.3 836.116C4827.37 848.184 4826.44 861.361 4824.34 866.606L4824.09 867.235H4823.41H4579.29H4538.12C4537.57 867.235 4537.12 866.787 4537.12 866.235C4537.12 865.683 4537.57 865.235 4538.12 865.235ZM4511.65 865.235C4512.2 865.235 4512.65 865.683 4512.65 866.235C4512.65 866.788 4512.2 867.235 4511.65 867.235H4494C4493.45 867.235 4493 866.788 4493 866.235C4493 865.683 4493.45 865.235 4494 865.235H4511.65Z" fill="#0E3249"/>
<path d="M4778.31 831.105L4774.36 831.763L4774.36 831.763L4778.31 831.105ZM4642.02 819.451L4645.87 820.55L4645.87 820.55L4642.02 819.451ZM4641.72 820.493L4645.57 821.592L4644.38 825.761L4640.32 824.239L4641.72 820.493ZM4640.71 820.113L4639.3 823.858L4639.3 823.858L4640.71 820.113ZM4597.59 828.759L4594.99 825.722L4594.99 825.722L4597.59 828.759ZM4580.18 865.235V869.235H4576.53L4576.2 865.598L4580.18 865.235ZM4822.71 865.235L4826.51 866.499L4825.6 869.235H4822.71V865.235ZM4813.88 837.53L4816.71 834.702L4816.71 834.702L4813.88 837.53ZM4795.05 829.366L4795.27 825.372L4795.27 825.372L4795.05 829.366ZM4779.69 831.86L4778.11 828.183L4778.11 828.183L4779.69 831.86ZM4778.52 832.362L4780.09 836.038L4775.41 838.045L4774.57 833.019L4778.52 832.362ZM4578.18 865.235L4582.16 864.907L4582.52 869.235H4578.18V865.235ZM4596.29 827.241L4593.69 824.204L4593.69 824.204L4596.29 827.241ZM4640.41 817.888L4644.21 819.124L4642.97 822.94L4639.16 821.689L4640.41 817.888ZM4780.06 829.559L4781.45 833.309L4777.04 834.949L4776.13 830.327L4780.06 829.559ZM4795.16 827.369L4794.93 831.363L4794.93 831.363L4795.16 827.369ZM4815.3 836.116L4812.47 838.945L4812.47 838.945L4815.3 836.116ZM4824.34 866.606L4820.63 865.121L4820.63 865.121L4824.34 866.606ZM4824.09 867.235L4827.8 868.721L4826.8 871.235H4824.09V867.235ZM4711.65 775C4760.66 775 4779.16 811.896 4782.25 830.448L4774.36 831.763C4771.67 815.623 4755.45 783 4711.65 783V775ZM4638.17 818.352C4642.46 803.359 4663.23 775 4711.65 775V783C4666.86 783 4649.18 808.938 4645.87 820.55L4638.17 818.352ZM4637.88 819.394L4638.17 818.352L4645.87 820.55L4645.57 821.592L4637.88 819.394ZM4642.11 816.367L4643.13 816.748L4640.32 824.239L4639.3 823.858L4642.11 816.367ZM4594.99 825.722C4612.53 810.684 4633.59 813.17 4642.11 816.367L4639.3 823.858C4632.6 821.344 4614.87 819.213 4600.19 831.796L4594.99 825.722ZM4576.2 865.598C4575.45 857.374 4578.38 839.962 4594.99 825.722L4600.19 831.796C4585.76 844.173 4583.63 858.944 4584.17 864.872L4576.2 865.598ZM4822.71 869.235H4580.18V861.235H4822.71V869.235ZM4816.71 834.702C4828.85 846.844 4828.6 860.219 4826.51 866.499L4818.92 863.971C4820.15 860.282 4820.85 850.156 4811.05 840.359L4816.71 834.702ZM4795.27 825.372C4802.33 825.771 4810.19 828.185 4816.71 834.702L4811.05 840.359C4806.23 835.535 4800.39 833.674 4794.82 833.359L4795.27 825.372ZM4778.11 828.183C4781.93 826.547 4788.27 824.976 4795.27 825.372L4794.82 833.359C4789.17 833.039 4784.05 834.342 4781.26 835.537L4778.11 828.183ZM4776.94 828.685L4778.11 828.183L4781.26 835.537L4780.09 836.038L4776.94 828.685ZM4782.25 830.448L4782.46 831.704L4774.57 833.019L4774.36 831.763L4782.25 830.448ZM4578.18 869.235H4538.12V861.235H4578.18V869.235ZM4598.89 830.278C4584.05 842.999 4581.62 858.272 4582.16 864.907L4574.19 865.563C4573.46 856.659 4576.69 838.774 4593.69 824.204L4598.89 830.278ZM4639.16 821.689C4631.38 819.135 4613.68 817.607 4598.89 830.278L4593.69 824.204C4611.24 809.154 4632.15 810.968 4641.65 814.088L4639.16 821.689ZM4711.65 781C4667.02 781 4648.37 806.313 4644.21 819.124L4636.6 816.653C4641.81 800.631 4663.47 773 4711.65 773V781ZM4776.13 830.327C4772.79 813.204 4755.75 781 4711.65 781V773C4760.85 773 4780.18 809.317 4783.99 828.792L4776.13 830.327ZM4794.93 831.363C4789.57 831.059 4784.64 832.127 4781.45 833.309L4778.67 825.81C4782.75 824.293 4788.78 823.002 4795.39 823.375L4794.93 831.363ZM4812.47 838.945C4807.22 833.697 4800.87 831.699 4794.93 831.363L4795.39 823.375C4802.81 823.796 4811.19 826.347 4818.13 833.288L4812.47 838.945ZM4820.63 865.121C4822.18 861.249 4823.32 849.798 4812.47 838.945L4818.13 833.288C4831.41 846.57 4830.7 861.473 4828.06 868.092L4820.63 865.121ZM4820.38 865.749L4820.63 865.121L4828.06 868.092L4827.8 868.721L4820.38 865.749ZM4823.41 863.235H4824.09V871.235H4823.41V863.235ZM4579.29 863.235H4823.41V871.235H4579.29V863.235ZM4538.12 863.235H4579.29V871.235H4538.12V863.235ZM4541.12 866.235C4541.12 864.578 4539.78 863.235 4538.12 863.235V871.235C4535.36 871.235 4533.12 868.996 4533.12 866.235H4541.12ZM4538.12 869.235C4539.78 869.235 4541.12 867.892 4541.12 866.235H4533.12C4533.12 863.474 4535.36 861.235 4538.12 861.235V869.235ZM4508.65 866.235C4508.65 867.892 4509.99 869.235 4511.65 869.235V861.235C4514.41 861.235 4516.65 863.474 4516.65 866.235H4508.65ZM4511.65 863.235C4509.99 863.235 4508.65 864.578 4508.65 866.235H4516.65C4516.65 868.997 4514.41 871.235 4511.65 871.235V863.235ZM4494 863.235H4511.65V871.235H4494V863.235ZM4497 866.235C4497 864.578 4495.66 863.235 4494 863.235V871.235C4491.24 871.235 4489 868.997 4489 866.235H4497ZM4494 869.235C4495.66 869.235 4497 867.892 4497 866.235H4489C4489 863.474 4491.24 861.235 4494 861.235V869.235ZM4511.65 869.235H4494V861.235H4511.65V869.235Z" fill="#0E3249"/>
</svg>
