<svg width="5453" height="3465" viewBox="0 0 5453 3465" fill="none" xmlns="http://www.w3.org/2000/svg">
<path fill-rule="evenodd" clip-rule="evenodd" d="M1029.18 740.988C1032.08 723.641 1049.44 688.882 1095.84 688.882C1142.45 688.882 1161.67 716.031 1165.47 729.334L1165.77 730.376L1166.78 729.995C1174.4 727.139 1193.79 724.831 1209.9 738.642C1225.43 751.95 1227.95 768.042 1227.31 775.117H984.777C983.117 770.133 982.639 758.382 993.608 747.413C999.279 741.742 1006.13 739.605 1012.44 739.248C1018.77 738.89 1024.5 740.327 1027.8 741.742L1028.97 742.244L1029.18 740.988ZM1269.37 775.117H1229.31C1229.95 767.348 1227.12 750.769 1211.2 737.123C1195.03 723.263 1175.73 724.934 1167.08 727.771C1162.4 713.354 1142.25 686.882 1095.84 686.882C1049.19 686.882 1031.01 721.143 1027.43 739.442C1023.8 738.092 1018.32 736.912 1012.33 737.251C1005.65 737.629 998.288 739.904 992.194 745.998C980.126 758.067 981.051 771.243 983.149 776.489L983.401 777.117H984.078H1228.2H1269.37C1269.92 777.117 1270.37 776.67 1270.37 776.117C1270.37 775.565 1269.92 775.117 1269.37 775.117ZM1295.84 775.118C1295.29 775.118 1294.84 775.565 1294.84 776.118C1294.84 776.67 1295.29 777.118 1295.84 777.118H1313.49C1314.04 777.118 1314.49 776.67 1314.49 776.118C1314.49 775.565 1314.04 775.118 1313.49 775.118H1295.84Z" fill="#0E3249"/>
<path d="M1029.18 740.988L1033.13 741.645L1033.13 741.645L1029.18 740.988ZM1165.47 729.334L1161.63 730.432L1161.63 730.432L1165.47 729.334ZM1165.77 730.376L1161.92 731.475L1163.11 735.643L1167.17 734.121L1165.77 730.376ZM1166.78 729.995L1168.19 733.74L1168.19 733.74L1166.78 729.995ZM1209.9 738.642L1212.5 735.605L1212.5 735.605L1209.9 738.642ZM1227.31 775.117V779.117H1230.96L1231.29 775.48L1227.31 775.117ZM984.777 775.117L980.982 776.381L981.893 779.117H984.777V775.117ZM993.608 747.413L990.78 744.584L990.78 744.584L993.608 747.413ZM1012.44 739.248L1012.22 735.254L1012.22 735.254L1012.44 739.248ZM1027.8 741.742L1029.38 738.066L1029.38 738.066L1027.8 741.742ZM1028.97 742.244L1027.4 745.921L1032.08 747.928L1032.92 742.902L1028.97 742.244ZM1229.31 775.117L1225.33 774.79L1224.97 779.117H1229.31V775.117ZM1211.2 737.123L1213.8 734.086L1213.8 734.086L1211.2 737.123ZM1167.08 727.771L1163.28 729.006L1164.52 732.822L1168.33 731.571L1167.08 727.771ZM1027.43 739.442L1026.04 743.191L1030.45 744.831L1031.36 740.209L1027.43 739.442ZM1012.33 737.251L1012.56 741.245L1012.56 741.245L1012.33 737.251ZM992.194 745.998L995.023 748.827L995.023 748.827L992.194 745.998ZM983.149 776.489L986.863 775.003L986.863 775.003L983.149 776.489ZM983.401 777.117L979.687 778.603L980.693 781.117H983.401V777.117ZM1095.84 684.882C1046.83 684.882 1028.33 721.778 1025.24 740.33L1033.13 741.645C1035.82 725.505 1052.05 692.882 1095.84 692.882V684.882ZM1169.32 728.235C1165.03 713.241 1144.26 684.882 1095.84 684.882V692.882C1140.64 692.882 1158.31 718.82 1161.63 730.432L1169.32 728.235ZM1169.62 729.277L1169.32 728.235L1161.63 730.432L1161.92 731.475L1169.62 729.277ZM1165.38 726.25L1164.36 726.63L1167.17 734.121L1168.19 733.74L1165.38 726.25ZM1212.5 735.605C1194.96 720.566 1173.91 723.052 1165.38 726.25L1168.19 733.74C1174.89 731.226 1192.62 729.096 1207.3 741.679L1212.5 735.605ZM1231.29 775.48C1232.04 767.257 1229.12 749.845 1212.5 735.605L1207.3 741.679C1221.74 754.055 1223.86 768.827 1223.32 774.755L1231.29 775.48ZM984.777 779.117H1227.31V771.117H984.777V779.117ZM990.78 744.584C978.638 756.726 978.89 770.101 980.982 776.381L988.572 773.853C987.344 770.165 986.64 760.038 996.437 750.241L990.78 744.584ZM1012.22 735.254C1005.16 735.654 997.297 738.067 990.78 744.584L996.437 750.241C1001.26 745.417 1007.1 743.557 1012.67 743.242L1012.22 735.254ZM1029.38 738.066C1025.56 736.429 1019.22 734.858 1012.22 735.254L1012.67 743.242C1018.33 742.922 1023.44 744.225 1026.23 745.419L1029.38 738.066ZM1030.55 738.567L1029.38 738.066L1026.23 745.419L1027.4 745.921L1030.55 738.567ZM1025.24 740.33L1025.03 741.586L1032.92 742.902L1033.13 741.645L1025.24 740.33ZM1229.31 779.117H1269.37V771.117H1229.31V779.117ZM1208.6 740.16C1223.44 752.881 1225.87 768.154 1225.33 774.79L1233.3 775.445C1234.03 766.541 1230.8 748.657 1213.8 734.086L1208.6 740.16ZM1168.33 731.571C1176.12 729.018 1193.82 727.49 1208.6 740.16L1213.8 734.086C1196.25 719.037 1175.35 720.851 1165.84 723.97L1168.33 731.571ZM1095.84 690.882C1140.47 690.882 1159.12 716.196 1163.28 729.006L1170.89 726.535C1165.69 710.513 1144.02 682.882 1095.84 682.882V690.882ZM1031.36 740.209C1034.71 723.086 1051.74 690.882 1095.84 690.882V682.882C1046.64 682.882 1027.32 719.2 1023.51 738.674L1031.36 740.209ZM1012.56 741.245C1017.93 740.941 1022.86 742.009 1026.04 743.191L1028.82 735.692C1024.74 734.175 1018.71 732.884 1012.1 733.258L1012.56 741.245ZM995.023 748.827C1000.27 743.58 1006.62 741.581 1012.56 741.245L1012.1 733.258C1004.68 733.678 996.307 736.229 989.366 743.17L995.023 748.827ZM986.863 775.003C985.314 771.131 984.169 759.681 995.023 748.827L989.366 743.17C976.083 756.452 976.788 771.355 979.435 777.974L986.863 775.003ZM987.115 775.632L986.863 775.003L979.435 777.974L979.687 778.603L987.115 775.632ZM984.078 773.117H983.401V781.117H984.078V773.117ZM1228.2 773.117H984.078V781.117H1228.2V773.117ZM1269.37 773.117H1228.2V781.117H1269.37V773.117ZM1266.37 776.117C1266.37 774.46 1267.72 773.117 1269.37 773.117V781.117C1272.13 781.117 1274.37 778.879 1274.37 776.117H1266.37ZM1269.37 779.117C1267.72 779.117 1266.37 777.774 1266.37 776.117H1274.37C1274.37 773.356 1272.13 771.117 1269.37 771.117V779.117ZM1298.84 776.118C1298.84 777.774 1297.5 779.118 1295.84 779.118V771.118C1293.08 771.118 1290.84 773.356 1290.84 776.118H1298.84ZM1295.84 773.118C1297.5 773.118 1298.84 774.461 1298.84 776.118H1290.84C1290.84 778.879 1293.08 781.118 1295.84 781.118V773.118ZM1313.49 773.118H1295.84V781.118H1313.49V773.118ZM1310.49 776.118C1310.49 774.461 1311.84 773.118 1313.49 773.118V781.118C1316.25 781.118 1318.49 778.879 1318.49 776.118H1310.49ZM1313.49 779.118C1311.84 779.118 1310.49 777.774 1310.49 776.118H1318.49C1318.49 773.356 1316.25 771.118 1313.49 771.118V779.118ZM1295.84 779.118H1313.49V771.118H1295.84V779.118Z" fill="#0E3249"/>
</svg>
