<svg width="5453" height="3465" viewBox="0 0 5453 3465" fill="none" xmlns="http://www.w3.org/2000/svg">
<path fill-rule="evenodd" clip-rule="evenodd" d="M3223.49 421.953C3254.67 418.093 3271.71 426.458 3283.08 437.596C3288.9 443.298 3293.37 449.865 3297.53 456.411C3298.22 457.505 3298.92 458.607 3299.61 459.708L3299.61 459.709C3302.95 465.042 3306.28 470.358 3309.98 474.61L3311.58 476.439L3313.93 475.873C3319.89 474.444 3329.88 472.968 3340.23 473.257C3350.68 473.549 3360.8 475.629 3367.61 480.693C3374.58 485.872 3379.77 494.316 3383.4 503.165C3386.03 509.575 3387.75 515.959 3388.73 520.983H3090.69C3089.94 518.107 3089.52 514.366 3090.13 510.475C3090.95 505.221 3093.64 499.641 3100.2 495.325C3107.01 490.846 3115.23 488.998 3122.97 488.603C3130.69 488.209 3137.59 489.284 3141.44 490.34L3145.38 491.422L3146.38 487.461C3148.81 477.836 3153.73 463.258 3165.14 450.215C3176.47 437.26 3194.44 425.55 3223.49 421.953ZM3086.06 528.983C3087.11 529.56 3088.4 529.666 3089.58 529.16C3089.7 529.106 3089.82 529.047 3089.94 528.983H3439V520.983H3396.87C3395.85 515.24 3393.91 507.702 3390.8 500.126C3386.92 490.667 3381.02 480.695 3372.39 474.273C3363.6 467.738 3351.47 465.568 3340.45 465.26C3330.61 464.985 3321.11 466.181 3314.52 467.547C3311.85 464.157 3309.32 460.138 3306.5 455.646L3306.5 455.645C3305.78 454.501 3305.05 453.325 3304.28 452.122C3300.07 445.482 3295.19 438.261 3288.67 431.881C3275.38 418.856 3255.83 409.888 3222.51 414.014C3191.56 417.845 3171.78 430.469 3159.11 444.948C3147.99 457.67 3142.53 471.616 3139.64 481.732C3135.08 480.872 3129.06 480.281 3122.56 480.613C3113.97 481.052 3104.19 483.12 3095.8 488.641C3087.16 494.325 3083.35 501.996 3082.22 509.242C3081.56 513.465 3081.81 517.526 3082.49 520.983H3033C3030.79 520.983 3029 522.774 3029 524.983C3029 527.192 3030.79 528.983 3033 528.983H3086.06ZM3453 524.499C3453 522.29 3454.79 520.499 3457 520.499H3515V528.499H3457C3454.79 528.499 3453 526.708 3453 524.499ZM2981 520.499C2978.79 520.499 2977 522.29 2977 524.499C2977 526.708 2978.79 528.499 2981 528.499H3014V520.499H2981Z" fill="#0E3249"/>
</svg>
